<svg xmlns="http://www.w3.org/2000/svg" viewBox="0 0 293.27 354.7"><defs><style>.cls-1{fill:#fff;}</style></defs><title>Recurso 12</title><g id="Capa_2" data-name="Capa 2"><g id="Capa_1-2" data-name="Capa 1"><path class="cls-1" d="M40.73,64.26c39,13,54.13,61.05,48.5,74.48s-10.4,19.49-10.4,19.49-48.08,62.38-6.93,136,119.52,59.35,119.55,59.35c6.75-1.23,13.29-2.23,19.86-4.4a118.31,118.31,0,0,0,42.5-25,128.62,128.62,0,0,0,21.52-25.7c7.08-11.07,14.69-24.56,16.79-37.67a38.84,38.84,0,0,0,.46-4.44c.1-2.27-.33-5.08-2.47-5.87-1.66-.61-3.45.38-4.92,1.37-12.56,8.53-20.06,21-30.22,31.88a120.58,120.58,0,0,1-30.2,23.78A101.23,101.23,0,0,1,162.58,319a105.72,105.72,0,0,1-51.12-21.61,78,78,0,0,1-15.73-16.52C78.24,244,72.55,201.67,104.39,162.13c0,0,56.31-51.11,113.49,14.29,0,0-48.95-42-106.56,0,0,0,54.58,111.76,181.93,49.82,0,0,4.33-86.2-97-110,0,0-46.78-6.07-85.77,16.46,0,0-.86-55.88-51.54-78,0,0-19.06-8.67-58.91-3C3.9,131.38,74.07,140,74.07,140,81.33,89.23,41.87,64.94,40.73,64.26Z"/><path class="cls-1" d="M136.54,9.51C116.3,29.33,117.45,77,128.38,88.19s36.17,4.12,56.41-15.7,27.78-44.92,16.85-56.07S156.77-10.31,136.54,9.51Z"/></g></g></svg>