<svg width="35" height="35" viewBox="0 0 35 35" fill="none" xmlns="http://www.w3.org/2000/svg">
<path d="M17.5 3.15328C22.1726 3.15328 22.7261 3.17105 24.5714 3.25514C26.2776 3.33307 27.2043 3.61812 27.821 3.85779C28.6378 4.17525 29.2208 4.55451 29.8331 5.16687C30.4456 5.77924 30.8247 6.36221 31.1422 7.17896C31.3819 7.7957 31.6669 8.72238 31.7449 10.4285C31.8289 12.2739 31.8467 12.8274 31.8467 17.5C31.8467 22.1728 31.8289 22.7262 31.7449 24.5715C31.6669 26.2778 31.3819 27.2043 31.1422 27.821C30.8247 28.6378 30.4455 29.2209 29.8331 29.8333C29.2208 30.4456 28.6378 30.8249 27.821 31.1422C27.2043 31.3819 26.2776 31.6671 24.5714 31.7449C22.7263 31.8291 22.1729 31.8469 17.5 31.8469C12.827 31.8469 12.2735 31.8291 10.4285 31.7449C8.72225 31.6669 7.7957 31.3819 7.17896 31.1422C6.36221 30.8249 5.7791 30.4456 5.16674 29.8333C4.55438 29.2208 4.17512 28.6378 3.85779 27.821C3.61812 27.2044 3.33293 26.2778 3.25514 24.5715C3.17092 22.7262 3.15314 22.1728 3.15314 17.5C3.15314 12.8274 3.17092 12.2739 3.25514 10.4286C3.33307 8.72238 3.61812 7.7957 3.85779 7.17896C4.17512 6.36221 4.55438 5.77924 5.16674 5.16687C5.77924 4.55438 6.36221 4.17525 7.17896 3.85779C7.79557 3.61812 8.72225 3.33307 10.4285 3.25514C12.2738 3.17105 12.8272 3.15328 17.5 3.15328ZM17.5 0C12.7472 0 12.1513 0.0200977 10.2848 0.105273C8.42201 0.190312 7.14984 0.486172 6.03682 0.91875C4.88592 1.36596 3.91002 1.96437 2.93713 2.93727C1.96424 3.91016 1.36596 4.88605 0.91875 6.03682C0.486035 7.14998 0.190312 8.42215 0.105273 10.2848C0.0200977 12.1513 0 12.7472 0 17.5C0 22.2528 0.0200977 22.8487 0.105273 24.7152C0.190312 26.578 0.486035 27.8502 0.91875 28.9632C1.36582 30.1139 1.96424 31.09 2.93713 32.0629C3.91002 33.0358 4.88592 33.634 6.03682 34.0812C7.14998 34.514 8.42201 34.8097 10.2847 34.8947C12.1513 34.9799 12.7472 35 17.5 35C22.2528 35 22.8487 34.9799 24.7152 34.8947C26.5779 34.8097 27.85 34.514 28.963 34.0812C30.1139 33.6342 31.0898 33.0358 32.0627 32.0629C33.0356 31.09 33.634 30.1141 34.0812 28.9632C34.5138 27.85 34.8097 26.578 34.8947 24.7153C34.9799 22.8487 35 22.2528 35 17.5C35 12.7472 34.9799 12.1513 34.8947 10.2848C34.8097 8.42215 34.5138 7.14998 34.0812 6.03695C33.634 4.88605 33.0356 3.91016 32.0627 2.93727C31.0898 1.96437 30.1139 1.36582 28.9632 0.91875C27.85 0.486172 26.5779 0.190312 24.7152 0.105273C22.8487 0.0200977 22.2528 0 17.5 0ZM17.5 8.51348C12.5368 8.51348 8.51348 12.5371 8.51348 17.5C8.51348 22.4632 12.5368 26.4865 17.5 26.4865C22.463 26.4865 26.4865 22.4632 26.4865 17.5C26.4865 12.537 22.463 8.51348 17.5 8.51348ZM17.5 23.3334C14.2784 23.3334 11.6666 20.7216 11.6666 17.5C11.6666 14.2784 14.2784 11.6666 17.5 11.6666C20.7216 11.6666 23.3334 14.2784 23.3334 17.5C23.3334 20.7216 20.7216 23.3334 17.5 23.3334ZM28.9414 8.15842C28.9414 9.31834 28.0014 10.2584 26.8414 10.2584C25.6817 10.2584 24.7414 9.31834 24.7414 8.15842C24.7414 6.99863 25.6817 6.05842 26.8414 6.05842C28.0014 6.05842 28.9414 6.99863 28.9414 8.15842Z" fill="url(#paint0_linear)"/>
<defs>
<linearGradient id="paint0_linear" x1="17.5" y1="0" x2="17.5" y2="35" gradientUnits="userSpaceOnUse">
<stop stop-color="#94A637"/>
<stop offset="1" stop-color="#7B8931"/>
</linearGradient>
</defs>
</svg>
