<svg width="35" height="35" viewBox="0 0 35 35" fill="none" xmlns="http://www.w3.org/2000/svg">
<path d="M29.8195 29.8207H24.6336V21.6992C24.6336 19.7626 24.599 17.2695 21.9364 17.2695C19.2354 17.2695 18.8221 19.3797 18.8221 21.5583V29.8202H13.6364V13.1192H18.6147V15.4016H18.6844C19.1827 14.5497 19.9026 13.8489 20.7676 13.3738C21.6326 12.8987 22.6103 12.6671 23.5965 12.7037C28.8526 12.7037 29.8217 16.161 29.8217 20.6588L29.8195 29.8207ZM7.78482 10.8364C6.12273 10.8367 4.77509 9.48942 4.77482 7.82734C4.77454 6.16525 6.12163 4.81761 7.78372 4.81734C9.44581 4.81692 10.7934 6.16415 10.7937 7.82624C10.7939 8.62441 10.4769 9.38995 9.91267 9.95445C9.34839 10.519 8.58299 10.8362 7.78482 10.8364ZM10.3778 29.8209H5.18648V13.1192H10.3777V29.8207L10.3778 29.8209ZM32.4049 0.00114352H2.58062C1.17105 -0.0147159 0.0150903 1.11444 -0.00213623 2.52401V32.4727C0.0145435 33.8829 1.17036 35.0132 2.58048 34.9984H32.4049C33.818 35.0159 34.9783 33.8857 34.9979 32.4727V2.52169C34.9778 1.10939 33.8173 -0.0196377 32.4049 -0.0011807" fill="url(#paint0_linear)"/>
<defs>
<linearGradient id="paint0_linear" x1="17.4979" y1="-0.00140381" x2="17.4979" y2="34.9986" gradientUnits="userSpaceOnUse">
<stop stop-color="#94A637"/>
<stop offset="1" stop-color="#7B8931"/>
</linearGradient>
</defs>
</svg>
