<svg width="294" height="355" viewBox="0 0 294 355" fill="none" xmlns="http://www.w3.org/2000/svg">
<path d="M40.7 64.2595C79.7 77.2595 94.83 125.31 89.2 138.74C83.57 152.17 78.8 158.229 78.8 158.229C78.8 158.229 30.72 220.609 71.87 294.23C113.02 367.85 191.39 353.579 191.42 353.579C198.17 352.349 204.71 351.349 211.28 349.179C227.045 343.923 241.526 335.405 253.78 324.179C262.044 316.588 269.278 307.948 275.3 298.48C282.38 287.41 289.99 273.919 292.09 260.809C292.328 259.34 292.482 257.857 292.55 256.369C292.65 254.099 292.22 251.289 290.08 250.499C288.42 249.889 286.63 250.879 285.16 251.869C272.6 260.399 265.1 272.869 254.94 283.749C246.21 293.24 236.013 301.269 224.74 307.529C205.767 317.896 183.973 321.915 162.55 318.999C143.89 316.477 126.241 309.017 111.43 297.39C105.405 292.683 100.105 287.117 95.7 280.869C78.21 243.999 72.52 201.669 104.36 162.13C104.36 162.13 160.67 111.019 217.85 176.419C217.85 176.419 168.9 134.419 111.29 176.419C111.29 176.419 165.87 288.18 293.22 226.24C293.22 226.24 297.55 140.039 196.22 116.239C196.22 116.239 149.44 110.169 110.45 132.699C110.45 132.699 109.59 76.8195 58.91 54.6995C58.91 54.6995 39.85 46.0295 0 51.6995C3.87 131.379 74.04 139.999 74.04 139.999C81.3 89.2295 41.84 64.9395 40.7 64.2595Z" fill="#7B8931"/>
<path d="M136.51 9.50944C116.27 29.3294 117.42 76.9994 128.35 88.1894C139.28 99.3794 164.52 92.3094 184.76 72.4894C205 52.6694 212.54 27.5694 201.61 16.4194C190.68 5.26944 156.74 -10.3106 136.51 9.50944Z" fill="#7B8931"/>
</svg>
