<svg width="1222" height="257" viewBox="0 0 1222 257" fill="none" xmlns="http://www.w3.org/2000/svg">
<path d="M604.78 204.662C590.05 204.662 576.18 204.742 562.32 204.542C561.06 204.542 559.32 203.022 558.65 201.762C546.443 178.862 534.337 155.902 522.33 132.882C520.92 130.182 519.33 129.062 516.33 129.232C511.51 129.492 506.66 129.302 501.42 129.302V204.422H462.05V7.462C463.26 7.402 464.35 7.302 465.44 7.302C489.69 7.302 513.93 7.302 538.18 7.302C551.37 7.302 563.81 9.932 574.52 17.982C588.27 28.332 595.43 42.602 597.38 59.422C599.38 77.032 595.44 93.192 584.02 107.122C578.658 113.607 571.705 118.59 563.84 121.582L559 123.422L604.78 204.662ZM501.59 46.892V90.792C512.59 90.792 523.32 90.352 534.01 90.902C548.39 91.632 555.12 81.612 556.01 71.422C557.01 59.992 551.06 47.182 536.82 46.932C525.22 46.732 513.61 46.892 501.59 46.892Z" fill="#7B8931"/>
<path d="M961.29 204.662C945.93 204.662 931.21 204.732 916.49 204.542C915.36 204.542 913.89 202.922 913.2 201.702C901.8 181.482 890.467 161.229 879.2 140.942C878.54 139.742 877.83 138.572 876.96 137.092C871.29 147.092 865.76 156.912 860.25 166.692C853.56 178.542 846.93 190.412 840.15 202.212C839.53 203.282 838.05 204.552 836.96 204.562C821.85 204.712 806.74 204.662 790.96 204.662C791.83 203.132 792.46 201.992 793.12 200.872C812.453 168.072 831.81 135.285 851.19 102.512C851.841 101.638 852.196 100.58 852.205 99.4901C852.214 98.4005 851.876 97.3364 851.24 96.4519C834.84 68.2986 818.507 40.1086 802.24 11.8819C801.45 10.5119 800.68 9.13192 799.62 7.26192C801.38 7.17192 802.62 7.05192 803.77 7.04192C817.02 7.04192 830.27 7.12192 843.52 6.97192C846.3 6.97192 847.69 7.91192 848.98 10.3119C857.38 26.0619 865.98 41.7119 874.48 57.3919C875.19 58.7019 875.94 59.9819 876.96 61.8019C877.8 60.3219 878.44 59.2119 879.05 58.0819C887.68 42.0019 896.27 26.0019 905 10.0019C905.7 8.73192 907.42 7.20192 908.68 7.19192C922.8 7.00192 936.92 7.08192 951.04 7.10192C951.595 7.17808 952.144 7.29846 952.68 7.46192C951.87 8.96192 951.19 10.3319 950.42 11.6419C934.093 39.6953 917.74 67.7286 901.36 95.7419C899.78 98.4319 899.65 100.352 901.3 103.112C920.58 135.512 939.777 167.959 958.89 200.452C959.59 201.602 960.24 202.802 961.29 204.662Z" fill="#7B8931"/>
<path d="M264.21 204.662C264.69 203.232 264.98 202.172 265.39 201.162C292.123 135.275 318.867 69.3919 345.62 3.51193C346.28 1.88193 346.57 -0.668067 349.15 0.161933C350.606 0.780138 351.767 1.93749 352.39 3.39193C379.277 69.3519 406.11 135.352 432.89 201.392C433.26 202.302 433.6 203.232 434.18 204.722H428.83C417.09 204.722 405.33 204.582 393.59 204.802C390.5 204.862 389.21 203.852 388.31 201.032C386.76 196.162 384.71 191.462 383.05 186.622C382.31 184.452 381.3 183.522 378.82 183.532C358.947 183.645 339.073 183.645 319.2 183.532C317.14 183.532 316.09 184.072 315.41 186.122C313.59 191.562 311.57 196.942 309.47 202.282C309.1 203.232 307.99 204.582 307.21 204.592C293 204.702 278.77 204.662 264.21 204.662ZM367.07 146.342L349.55 96.1619L348.76 96.3419L330.86 146.342H367.07Z" fill="#7B8931"/>
<path d="M783.58 204.662C769.09 204.662 755.22 204.722 741.35 204.562C740.7 204.424 740.091 204.137 739.57 203.724C739.05 203.311 738.632 202.783 738.35 202.182C736.19 197.002 734.26 191.722 732.35 186.432C731.64 184.432 730.73 183.432 728.35 183.432C708.35 183.545 688.35 183.545 668.35 183.432C666.18 183.432 665.35 184.272 664.66 186.192C662.54 192.302 660.23 198.352 657.98 204.482H613.7C614.17 203.082 614.51 201.812 614.99 200.612C641.663 134.872 668.383 69.1386 695.15 3.41192C695.69 2.07192 697.22 0.351915 698.38 0.281915C699.54 0.211915 701.22 1.88192 701.74 3.16192C728.667 69.2353 755.533 135.335 782.34 201.462C782.7 202.362 783 203.272 783.58 204.662ZM716.45 146.292C710.52 129.292 704.73 112.642 698.62 95.1219C692.3 112.742 686.35 129.342 680.28 146.292H716.45Z" fill="#7B8931"/>
<path d="M169 200.452C165.877 194.946 163.173 189.214 160.91 183.302C158.33 176.712 156 170.022 153.33 163.462C145.823 144.982 138.317 126.495 130.81 108.002C116.703 73.2887 102.587 38.5687 88.46 3.84205C87.78 2.17205 87.64 -0.707952 84.81 0.182048C83.2469 0.866857 82.0151 2.13808 81.38 3.72205C54.5733 69.5687 27.8233 135.439 1.13 201.332C0.73 202.332 0.44 203.332 0 204.672C14.4 204.672 28.39 204.722 42.38 204.562C43.38 204.562 44.85 203.152 45.29 202.072C47.39 196.882 49.29 191.602 51.1 186.282C51.82 184.142 52.93 183.492 55.1 183.502C74.98 183.582 94.8533 183.582 114.72 183.502C116.99 183.502 117.97 184.272 118.72 186.362C126 207.002 136 226.002 155 238.272C165.653 245.019 177.403 249.852 189.72 252.552C230.34 261.882 273.84 253.282 312.9 241.212C283.54 247.502 252.07 249.712 222.9 241.062C208.948 237.048 196.047 230.019 185.11 220.472C178.696 214.71 173.256 207.95 169 200.452ZM66.65 146.292L85 95.142C91.17 112.802 97 129.402 102.84 146.292H66.65Z" fill="#7B8931"/>
<path d="M1221.85 204.662C1207.33 204.662 1193.34 204.712 1179.36 204.562C1178.43 204.562 1177.08 203.292 1176.68 202.312C1174.58 197.242 1172.52 192.132 1170.88 186.902C1169.99 184.062 1168.53 183.462 1165.77 183.482C1146.4 183.602 1127.03 183.602 1107.66 183.482C1105.05 183.482 1103.66 184.082 1102.85 186.752C1101.21 191.982 1099.22 197.112 1097.13 202.182C1096.85 202.781 1096.43 203.307 1095.91 203.718C1095.39 204.129 1094.78 204.414 1094.13 204.552C1080.51 204.702 1066.88 204.642 1053.26 204.622C1052.78 204.551 1052.3 204.437 1051.84 204.282L1056.47 192.822L1133 4.21203C1133.14 3.60408 1133.4 3.02777 1133.75 2.51203C1134.75 1.60203 1135.82 0.192034 1136.83 0.232034C1137.48 0.375946 1138.1 0.670518 1138.62 1.09235C1139.14 1.51417 1139.55 2.05164 1139.83 2.66203C1146.48 18.802 1153 35.002 1159.56 51.192L1220.28 200.602C1220.74 201.742 1221.16 202.892 1221.85 204.662ZM1154.85 146.372C1148.91 129.372 1143.13 112.802 1137.35 96.262L1136.5 96.402C1130.57 112.932 1124.65 129.462 1118.59 146.402L1154.85 146.372Z" fill="#7B8931"/>
<path d="M236.73 204.552H197.36V46.8021H148.2V7.85205H285.55V46.7521H236.73V204.552Z" fill="#7B8931"/>
<path d="M985.64 7.44189H1024.64V204.442H985.64V7.44189Z" fill="#7B8931"/>
</svg>
