<svg xmlns="http://www.w3.org/2000/svg" viewBox="0 0 1221.85 256.5"><defs><style>.cls-1{fill:#fff;}</style></defs><title>Recurso 11</title><g id="Capa_2" data-name="Capa 2"><g id="Capa_1-2" data-name="Capa 1"><path class="cls-1" d="M604.78,204.66c-14.73,0-28.6.08-42.46-.12-1.26,0-3-1.52-3.67-2.78q-18.31-34.35-36.32-68.88c-1.41-2.7-3-3.82-6-3.65-4.82.26-9.67.07-14.91.07v75.12H462.05V7.46c1.21-.06,2.3-.16,3.39-.16,24.25,0,48.49,0,72.74,0,13.19,0,25.63,2.63,36.34,10.68,13.75,10.35,20.91,24.62,22.86,41.44,2,17.61-1.94,33.77-13.36,47.7a48.62,48.62,0,0,1-20.18,14.46L559,123.42ZM501.59,46.89v43.9c11,0,21.73-.44,32.42.11,14.38.73,21.11-9.29,22-19.48,1-11.43-4.95-24.24-19.19-24.49C525.22,46.73,513.61,46.89,501.59,46.89Z"/><path class="cls-1" d="M961.29,204.66c-15.36,0-30.08.07-44.8-.12-1.13,0-2.6-1.62-3.29-2.84q-17.1-30.33-34-60.76c-.66-1.2-1.37-2.37-2.24-3.85-5.67,10-11.2,19.82-16.71,29.6-6.69,11.85-13.32,23.72-20.1,35.52-.62,1.07-2.1,2.34-3.19,2.35-15.11.15-30.22.1-46,.1.87-1.53,1.5-2.67,2.16-3.79q29-49.2,58.07-98.36a5.13,5.13,0,0,0,.05-6.06q-24.6-42.23-49-84.57c-.79-1.37-1.56-2.75-2.62-4.62,1.76-.09,3-.21,4.15-.22,13.25,0,26.5.08,39.75-.07,2.78,0,4.17.94,5.46,3.34,8.4,15.75,17,31.4,25.5,47.08.71,1.31,1.46,2.59,2.48,4.41.84-1.48,1.48-2.59,2.09-3.72C887.68,42,896.27,26,905,10c.7-1.27,2.42-2.8,3.68-2.81,14.12-.19,28.24-.11,42.36-.09a10.53,10.53,0,0,1,1.64.36c-.81,1.5-1.49,2.87-2.26,4.18q-24.49,42.08-49.06,84.1c-1.58,2.69-1.71,4.61-.06,7.37q28.92,48.6,57.59,97.34C959.59,201.6,960.24,202.8,961.29,204.66Z"/><path class="cls-1" d="M264.21,204.66c.48-1.43.77-2.49,1.18-3.5q40.1-98.83,80.23-197.65c.66-1.63.95-4.18,3.53-3.35a6.13,6.13,0,0,1,3.24,3.23q40.33,98.94,80.5,198c.37.91.71,1.84,1.29,3.33h-5.35c-11.74,0-23.5-.14-35.24.08-3.09.06-4.38-.95-5.28-3.77-1.55-4.87-3.6-9.57-5.26-14.41-.74-2.17-1.75-3.1-4.23-3.09q-29.81.17-59.62,0c-2.06,0-3.11.54-3.79,2.59-1.82,5.44-3.84,10.82-5.94,16.16-.37.95-1.48,2.3-2.26,2.31C293,204.7,278.77,204.66,264.21,204.66Zm102.86-58.32L349.55,96.16l-.79.18-17.9,50Z"/><path class="cls-1" d="M783.58,204.66c-14.49,0-28.36.06-42.23-.1a4.3,4.3,0,0,1-3-2.38c-2.16-5.18-4.09-10.46-6-15.75-.71-2-1.62-3-4-3q-30,.17-60,0c-2.17,0-3,.84-3.69,2.76-2.12,6.11-4.43,12.16-6.68,18.29H613.7c.47-1.4.81-2.67,1.29-3.87Q655,102,695.15,3.41c.54-1.34,2.07-3.06,3.23-3.13s2.84,1.6,3.36,2.88q40.39,99.11,80.6,198.3C782.7,202.36,783,203.27,783.58,204.66Zm-67.13-58.37c-5.93-17-11.72-33.65-17.83-51.17-6.32,17.62-12.27,34.22-18.34,51.17Z"/><path class="cls-1" d="M169,200.45a126.15,126.15,0,0,1-8.09-17.15c-2.58-6.59-4.91-13.28-7.58-19.84Q142.07,135.74,130.81,108,109.65,55.93,88.46,3.84c-.68-1.67-.82-4.55-3.65-3.66a6.51,6.51,0,0,0-3.43,3.54Q41.17,102.49,1.13,201.33c-.4,1-.69,2-1.13,3.34,14.4,0,28.39.05,42.38-.11,1,0,2.47-1.41,2.91-2.49,2.1-5.19,4-10.47,5.81-15.79.72-2.14,1.83-2.79,4-2.78q29.82.12,59.62,0c2.27,0,3.25.77,4,2.86C126,207,136,226,155,238.27a108.19,108.19,0,0,0,34.72,14.28c40.62,9.33,84.12.73,123.18-11.34-29.36,6.29-60.83,8.5-90-.15a99.15,99.15,0,0,1-37.79-20.59A80,80,0,0,1,169,200.45ZM66.65,146.29,85,95.14C91.17,112.8,97,129.4,102.84,146.29Z"/><path class="cls-1" d="M1221.85,204.66c-14.52,0-28.51.05-42.49-.1-.93,0-2.28-1.27-2.68-2.25-2.1-5.07-4.16-10.18-5.8-15.41-.89-2.84-2.35-3.44-5.11-3.42q-29.05.18-58.11,0c-2.61,0-4,.6-4.81,3.27-1.64,5.23-3.63,10.36-5.72,15.43a4.31,4.31,0,0,1-3,2.37c-13.62.15-27.25.09-40.87.07a8.27,8.27,0,0,1-1.42-.34l4.63-11.46L1133,4.21a5.08,5.08,0,0,1,.75-1.7c1-.91,2.07-2.32,3.08-2.28a4.31,4.31,0,0,1,3,2.43C1146.48,18.8,1153,35,1159.56,51.19l60.72,149.41C1220.74,201.74,1221.16,202.89,1221.85,204.66Zm-67-58.29c-5.94-17-11.72-33.57-17.5-50.11l-.85.14c-5.93,16.53-11.85,33.06-17.91,50Z"/><path class="cls-1" d="M236.73,204.55H197.36V46.8H148.2V7.85H285.55v38.9H236.73Z"/><path class="cls-1" d="M985.64,7.44h39v197h-39Z"/></g></g></svg>